<svg width="30" height="30" viewBox="0 0 30 30" fill="none" xmlns="http://www.w3.org/2000/svg">
<g clip-path="url(#clip0_14964_80)">
<path d="M29.0218 19.1739V28.0435C29.0218 28.9565 28.3044 29.6739 27.3913 29.6739H2.60871C1.69566 29.6739 0.978271 28.9565 0.978271 28.0435V19.1739C0.978271 18.2609 1.69566 17.5435 2.60871 17.5435C3.52175 17.5435 4.23914 18.2609 4.23914 19.1739V26.4131H25.7609V19.1739C25.7609 18.2609 26.4783 17.5435 27.3913 17.5435C28.3044 17.5435 29.0218 18.2609 29.0218 19.1739ZM13.8261 21.1957C14.1196 21.5218 14.5435 21.6848 15 21.6848C15.4565 21.6848 15.8478 21.5218 16.1739 21.1957L22.6631 14.5435C23.2826 13.8913 23.2826 12.8805 22.6304 12.2283C21.9783 11.6087 20.9674 11.6087 20.3152 12.2609L16.6304 16.0761V1.95655C16.6304 1.0435 15.9131 0.326111 15 0.326111C14.087 0.326111 13.3696 1.0435 13.3696 1.95655V16.0761L9.65218 12.2935C9.03262 11.6413 7.98914 11.6413 7.33697 12.2609C6.68479 12.8805 6.68479 13.9239 7.30436 14.5761L13.8261 21.1957Z" fill="#FF0800"/>
</g>
<defs>
<clipPath id="clip0_14964_80">
<rect width="30" height="30" fill="white"/>
</clipPath>
</defs>
</svg>
