<svg width="13" height="13" viewBox="0 0 13 13" fill="none" xmlns="http://www.w3.org/2000/svg">
<g clip-path="url(#clip0_14955_7)">
<path d="M4.75518 6.41691C4.95945 6.71251 4.89839 6.4662 4.89839 12.3582C4.89839 12.8855 5.49994 13.1873 5.92391 12.8719C7.73561 11.506 8.09758 11.3877 8.09758 10.7488C8.09758 6.4551 8.04753 6.69656 8.24078 6.41691L11.1828 2.41235H1.81322L4.75518 6.41691Z" fill="#FF0800"/>
<path d="M12.2943 0.326523C12.1891 0.125176 11.983 0 11.756 0H1.24032C0.750158 0 0.461746 0.552932 0.742922 0.954687C0.745232 0.958547 0.711006 0.911701 1.25378 1.65039H11.7425C12.2051 1.02088 12.5142 0.748896 12.2943 0.326523Z" fill="#FF0800"/>
</g>
<defs>
<clipPath id="clip0_14955_7">
<rect width="13" height="13" fill="white"/>
</clipPath>
</defs>
</svg>
