<svg width="42" height="42" viewBox="0 0 42 42" fill="none" xmlns="http://www.w3.org/2000/svg">
<path d="M32.4148 25.2071C32.1451 24.1827 31.7376 23.201 31.1994 22.2802L32.0073 20.6652L30.6679 19.3258C30.2072 19.9663 29.6822 20.5648 29.0889 21.1036L27.7541 22.317L27.5218 22.7396C28.77 24.2227 29.5312 26.1285 29.5312 28.2186C29.5312 32.9305 25.7119 36.7499 21 36.7499C16.2881 36.7499 12.4688 32.9305 12.4688 28.2186C12.4688 26.0721 13.2674 24.1164 14.576 22.6169L12.9111 21.1029C12.3178 20.5635 11.7889 19.9683 11.3282 19.3284L9.99272 20.6646L10.8006 22.2796C10.2631 23.2003 9.85556 24.1821 9.58519 25.2065L7.875 25.7767V30.6599L9.58519 31.2302C9.85491 32.2546 10.2624 33.2363 10.8006 34.1571L9.99272 35.7721L13.4466 39.2253L15.0616 38.4181C15.9823 38.9556 16.9641 39.3631 17.9885 39.6328L18.5581 41.3436H23.4413L24.0115 39.6335C25.0359 39.3637 26.0177 38.9562 26.9384 38.4187L28.5534 39.2259L32.0073 35.7727L31.1994 34.1577C31.7369 33.237 32.1444 32.2552 32.4148 31.2308L34.125 30.6606V25.7774L32.4148 25.2071Z" fill="#FF0800" fill-opacity="0.972549"/>
<path d="M28.5633 8.84219L29.7183 8.21744C28.0698 5.17244 24.8975 3.28113 21.4377 3.28113H21V4.59363H21.4377C24.4151 4.59363 27.1458 6.22113 28.5633 8.84219Z" fill="#485858"/>
<path d="M19.7922 4.63037L19.6655 3.32443C19.1891 3.37037 18.714 3.45371 18.252 3.57184L18.5775 4.84365C18.9738 4.74193 19.3827 4.6704 19.7922 4.63037Z" fill="#485858"/>
<path d="M40.4795 10.2518L34.7812 6.691V9.84363H33.1183C31.8202 4.4906 27.0001 0.656128 21.4377 0.656128H20.5623C16.0519 0.656128 11.8978 3.22075 9.85163 7.21863H7.21875V4.066L1.52053 7.62682C0.979125 7.96544 0.65625 8.54885 0.65625 9.18738C0.65625 9.82591 0.979125 10.4093 1.52053 10.7479L7.21875 14.3088V11.1561H8.64019C8.57588 11.6634 8.53125 12.1746 8.53125 12.6872C8.53125 16.0695 9.96712 19.3146 12.4694 21.5892L13.6802 22.6897C12.4747 24.2818 11.8125 26.219 11.8125 28.2186C11.8125 33.2849 15.9338 37.4061 21 37.4061C26.0662 37.4061 30.1875 33.2849 30.1875 28.2186C30.1875 26.219 29.5253 24.2818 28.3198 22.6897L29.5306 21.5892C31.7474 19.5745 33.1282 16.7559 33.4031 13.7818H34.7812V16.9344L40.4795 13.3736C41.0209 13.0343 41.3438 12.4509 41.3438 11.8124C41.3438 11.1738 41.0209 10.5904 40.4795 10.2518ZM20.5623 1.96863H21.4377C26.2861 1.96863 30.5064 5.23675 31.7697 9.84363H23.625C22.8834 9.84363 22.2062 10.1002 21.6562 10.5169V10.4999C21.6562 8.6906 20.1843 7.21863 18.375 7.21863H11.3492C13.2661 4.00103 16.7724 1.96863 20.5623 1.96863ZM25.5938 26.9061C25.956 26.9061 26.25 27.2008 26.25 27.5624C26.25 27.924 25.956 28.2186 25.5938 28.2186H16.4062C16.044 28.2186 15.75 27.924 15.75 27.5624C15.75 27.2008 16.044 26.9061 16.4062 26.9061H25.5938ZM26.25 30.1874C26.25 30.549 25.956 30.8436 25.5938 30.8436H16.4062C16.044 30.8436 15.75 30.549 15.75 30.1874C15.75 29.8258 16.044 29.5311 16.4062 29.5311H25.5938C25.956 29.5311 26.25 29.8258 26.25 30.1874ZM5.90625 9.84363V11.941L2.21681 9.63494C2.06194 9.53782 1.96875 9.37047 1.96875 9.18738C1.96875 9.00428 2.06194 8.83694 2.21681 8.73982L5.90625 6.43375V8.53113H18.375C19.4604 8.53113 20.3438 9.41444 20.3438 10.4999V13.1249V25.5936H19.0312V11.1561C19.0312 10.4323 18.4426 9.84363 17.7188 9.84363H5.90625ZM9.84375 12.6872C9.84375 12.174 9.89231 11.6628 9.96516 11.1561H17.7188V25.5936H17.0152C16.8597 24.4012 16.2901 23.2882 15.3917 22.4712L13.3534 20.6173C11.1221 18.5914 9.84375 15.7 9.84375 12.6872ZM13.125 28.2186C13.125 26.5485 13.6618 24.9262 14.6455 23.5816C15.2237 24.1643 15.5958 24.9183 15.7093 25.7275C14.9677 26.0097 14.4375 26.723 14.4375 27.5624C14.4375 28.0683 14.635 28.5258 14.9494 28.8749C14.6344 29.224 14.4375 29.6814 14.4375 30.1874C14.4375 31.0418 14.9881 31.7637 15.75 32.0354V34.0717C14.1435 32.6286 13.125 30.5431 13.125 28.2186ZM17.0625 35.0279V32.1561H24.9375V35.0279C23.7779 35.7012 22.4352 36.0936 21 36.0936C19.5648 36.0936 18.2221 35.7012 17.0625 35.0279ZM26.25 34.0717V32.0354C27.0119 31.7637 27.5625 31.0418 27.5625 30.1874C27.5625 29.6814 27.365 29.224 27.0506 28.8749C27.3656 28.5258 27.5625 28.0683 27.5625 27.5624C27.5625 26.723 27.0322 26.0097 26.2907 25.7275C26.4036 24.919 26.7757 24.165 27.3538 23.5816C28.3382 24.9262 28.875 26.5485 28.875 28.2186C28.875 30.5431 27.8565 32.6286 26.25 34.0717ZM28.6473 20.6179L26.609 22.4712C25.7106 23.2882 25.1409 24.4012 24.9854 25.5936H24.2812V13.7811H32.0873C31.8163 16.3871 30.5931 18.8493 28.6473 20.6179ZM39.7832 12.2599L36.0938 14.566V12.4686H24.2812C23.5574 12.4686 22.9688 13.0573 22.9688 13.7811V25.5936H21.6562V13.1249C21.6562 12.0394 22.5396 11.1561 23.625 11.1561H36.0938V9.05875L39.7832 11.3648C39.9381 11.4619 40.0312 11.6293 40.0312 11.8124C40.0312 11.9955 39.9381 12.1628 39.7832 12.2599Z" fill="#485858"/>
</svg>
