<svg width="42" height="42" viewBox="0 0 42 42" fill="none" xmlns="http://www.w3.org/2000/svg">
<path d="M12.4688 13.7809H8.53125V10.4996H12.4688V13.7809Z" fill="#FF0800" fill-opacity="0.972549"/>
<path d="M20.3438 13.7809H16.4062V10.4996H20.3438V13.7809Z" fill="#FF0800" fill-opacity="0.972549"/>
<path d="M24.9375 20.3434H20.3438V17.0621H24.9375V20.3434Z" fill="#FF0800" fill-opacity="0.972549"/>
<path d="M16.4062 20.3434H12.4688V17.0621H16.4062V20.3434Z" fill="#FF0800" fill-opacity="0.972549"/>
<path d="M8.53125 20.3434H4.59375V17.0621H8.53125V20.3434Z" fill="#FF0800" fill-opacity="0.972549"/>
<path d="M32.8125 38.7184C30.28 38.7184 28.2188 36.6571 28.2188 34.1246C28.2188 31.5922 30.28 29.5309 32.8125 29.5309C35.345 29.5309 37.4062 31.5922 37.4062 34.1246C37.4062 36.6571 35.345 38.7184 32.8125 38.7184ZM32.8125 32.8121C32.0887 32.8121 31.5 33.4008 31.5 34.1246C31.5 34.8485 32.0887 35.4371 32.8125 35.4371C33.5363 35.4371 34.125 34.8485 34.125 34.1246C34.125 33.4008 33.5363 32.8121 32.8125 32.8121Z" fill="#FF0800" fill-opacity="0.972549"/>
<path d="M11.8125 38.7184C9.28003 38.7184 7.21875 36.6571 7.21875 34.1246C7.21875 31.5922 9.28003 29.5309 11.8125 29.5309C14.345 29.5309 16.4062 31.5922 16.4062 34.1246C16.4062 36.6571 14.345 38.7184 11.8125 38.7184ZM11.8125 32.8121C11.0887 32.8121 10.5 33.4008 10.5 34.1246C10.5 34.8485 11.0887 35.4371 11.8125 35.4371C12.5363 35.4371 13.125 34.8485 13.125 34.1246C13.125 33.4008 12.5363 32.8121 11.8125 32.8121Z" fill="#FF0800" fill-opacity="0.972549"/>
<path d="M16.4062 7.21838H12.4688V3.93713H16.4062V7.21838Z" fill="#FF0800" fill-opacity="0.972549"/>
<path d="M39.5299 23.6246L38.6544 23.1869L37.7626 17.8359C37.4981 16.2464 36.1364 15.0934 34.526 15.0934H27.5625C26.4948 15.0934 25.5537 15.6138 24.9546 16.4059H22.9688V9.84338H19.0312V3.28088H9.84375V9.84338H5.90625V16.4059H1.96875V22.9684C1.24491 22.9684 0.65625 23.557 0.65625 24.2809V25.5934C0.65625 26.3172 1.24491 26.9059 1.96875 26.9059V32.8121C1.96875 33.8976 2.85206 34.7809 3.9375 34.7809H7.27125C7.24041 34.5656 7.21875 34.3478 7.21875 34.1246C7.21875 33.9015 7.24041 33.6836 7.27125 33.4684H3.9375C3.57525 33.4684 3.28125 33.1744 3.28125 32.8121V32.1559H6.41878L7.40316 28.2184H3.28125V26.9059H24.2812V33.4684H16.3538C16.3846 33.6836 16.4062 33.9015 16.4062 34.1246C16.4062 34.3478 16.3846 34.5656 16.3538 34.7809H28.2713C28.2404 34.5656 28.2188 34.3478 28.2188 34.1246C28.2188 33.9015 28.2404 33.6836 28.2713 33.4684H28.2188V25.5934H33.4688H34.125H34.7812V29.9804C35.2728 30.2147 35.7171 30.531 36.0938 30.9162V22.3121L35.446 18.7907C35.3305 18.1699 34.7878 17.7184 34.1558 17.7184H28.2188C27.4949 17.7184 26.9062 18.307 26.9062 19.0309V33.4684H25.5938V18.3746C25.5938 17.2892 26.4771 16.4059 27.5625 16.4059H34.526C35.4926 16.4059 36.309 17.0982 36.4678 18.0511L37.4699 24.0624L38.9425 24.7987C39.6139 25.1347 40.0312 25.8093 40.0312 26.5594V26.9059H37.4062V29.9364L40.0312 31.2489V32.8121C40.0312 33.1744 39.7373 33.4684 39.375 33.4684H37.3537C37.3846 33.6836 37.4062 33.9015 37.4062 34.1246C37.4062 34.3478 37.3846 34.5656 37.3537 34.7809H39.375C40.4604 34.7809 41.3438 33.8976 41.3438 32.8121V26.5594C41.3438 25.3086 40.6488 24.1851 39.5299 23.6246ZM5.72184 29.5309L5.39372 30.8434H3.28125V29.5309H5.72184ZM34.125 24.2809H33.4688C32.7449 24.2809 32.1562 23.6922 32.1562 22.9684H34.7812V24.2809H34.125ZM34.1552 19.0309L34.6467 21.6559H32.1562C31.4324 21.6559 30.8438 22.2445 30.8438 22.9684C30.8438 23.4488 30.9829 23.893 31.2086 24.2809H28.2188V19.0309H34.1552ZM24.2812 18.3746V22.9684H19.0312V17.7184H24.3475C24.3042 17.9304 24.2812 18.1502 24.2812 18.3746ZM17.7188 17.7184V22.9684H11.1562V17.7184H17.7188ZM21.6562 16.4059H19.0312H17.7188H15.0938V11.1559H21.6562V16.4059ZM11.1562 4.59338H17.7188V9.84338H15.0938H13.7812H11.1562V4.59338ZM7.21875 11.1559H13.7812V16.4059H11.1562H9.84375H7.21875V11.1559ZM3.28125 17.7184H9.84375V22.9684H3.28125V17.7184ZM1.96875 25.5934V24.2809H24.2812V25.5934H1.96875ZM38.7188 29.1253V28.2184H40.0312V29.7816L38.7188 29.1253Z" fill="#485858"/>
<path d="M32.8125 32.1559C31.7271 32.1559 30.8438 33.0392 30.8438 34.1246C30.8438 35.2101 31.7271 36.0934 32.8125 36.0934C33.8979 36.0934 34.7812 35.2101 34.7812 34.1246C34.7812 33.0392 33.8979 32.1559 32.8125 32.1559ZM32.8125 34.7809C32.4503 34.7809 32.1562 34.4869 32.1562 34.1246C32.1562 33.7624 32.4503 33.4684 32.8125 33.4684C33.1748 33.4684 33.4688 33.7624 33.4688 34.1246C33.4688 34.4869 33.1748 34.7809 32.8125 34.7809Z" fill="#485858"/>
<path d="M11.8125 32.1559C10.7271 32.1559 9.84375 33.0392 9.84375 34.1246C9.84375 35.2101 10.7271 36.0934 11.8125 36.0934C12.8979 36.0934 13.7812 35.2101 13.7812 34.1246C13.7812 33.0392 12.8979 32.1559 11.8125 32.1559ZM11.8125 34.7809C11.4503 34.7809 11.1562 34.4869 11.1562 34.1246C11.1562 33.7624 11.4503 33.4684 11.8125 33.4684C12.1748 33.4684 12.4688 33.7624 12.4688 34.1246C12.4688 34.4869 12.1748 34.7809 11.8125 34.7809Z" fill="#485858"/>
</svg>
