<svg width="38" height="38" viewBox="0 0 38 38" fill="none" xmlns="http://www.w3.org/2000/svg">
<path d="M33.25 18.4059C33.25 17.4221 32.4526 16.6247 31.4688 16.6247H30.875H30.0473C28.7096 16.6247 27.4609 15.9561 26.7188 14.8434C25.9766 15.9561 24.7279 16.6247 23.3902 16.6247H22.5625H21.9688C20.9849 16.6247 20.1875 17.4221 20.1875 18.4059C20.1875 18.6155 20.2303 18.8132 20.2968 18.9997H20.1875L20.1103 17.0836L19.8859 16.4103C19.6923 15.8279 19.5938 15.2216 19.5938 14.6083C19.5938 11.4644 22.1522 8.90591 25.2961 8.90591H32.1646C33.4174 8.90591 34.4375 9.92598 34.4375 11.1788C34.4375 11.7856 34.2012 12.3568 33.7719 12.7861L33.5867 12.9713C34.4933 13.6138 35.0312 14.651 35.0312 15.7667C35.0312 16.4454 34.8323 17.1026 34.4553 17.6679L33.5677 18.9997H33.1407C33.2072 18.8132 33.25 18.6155 33.25 18.4059Z" fill="#FF0800" fill-opacity="0.972549"/>
<path d="M11.875 4.74963C11.875 4.42188 11.609 4.15588 11.2813 4.15588H8.3125V7.04625L3.08572 3.56213L8.3125 0.0780029V2.96838H11.2813C12.2633 2.96838 13.0625 3.76757 13.0625 4.74963V6.53088H11.875V4.74963ZM7.125 2.29625L5.22678 3.56213L7.125 4.828V2.29625Z" fill="#485858"/>
<path d="M13.0625 7.71841H11.875V8.90591H13.0625V7.71841Z" fill="#485858"/>
<path d="M2.12384 21.3746C2.84763 21.3746 3.49422 20.9424 3.78337 20.2441C4.06541 19.5702 3.91519 18.8031 3.40159 18.2895L2.31919 17.2071L6.51937 13.0069L7.60178 14.0893C7.80484 14.293 8.04888 14.4367 8.31191 14.521V10.6871C8.31191 10.3594 8.04591 10.0934 7.71816 10.0934H5.93691V12.9838L0.710716 9.49963L5.9375 6.0155V8.90588H7.71875C8.70081 8.90588 9.5 9.70507 9.5 10.6871V14.4871C9.52909 14.4764 9.55878 14.4699 9.58728 14.4574C10.2552 14.1813 10.6875 13.5348 10.6875 12.811V11.2809H11.875V10.0934H13.0625V11.2809H14.25V10.0934H15.4375V11.2809H16.625V12.811C16.625 13.5348 17.0572 14.1813 17.7555 14.4705C17.7739 14.4782 17.7935 14.4824 17.8125 14.4895V8.31213C17.8125 7.53907 18.3107 6.88594 19 6.64013V4.15588H16.0312C15.7035 4.15588 15.4375 4.42188 15.4375 4.74963V6.53088H14.25V4.74963C14.25 3.76757 15.0492 2.96838 16.0312 2.96838H19V0.0780029L24.2268 3.56213L19.7737 6.53088H29.6875V3.6405L34.9143 7.12463L32.2323 8.91241C32.2092 8.91182 32.1878 8.90588 32.1646 8.90588H29.6875V7.71838H19.5938C19.266 7.71838 19 7.98438 19 8.31213V14.5216C19.225 14.4485 19.4317 14.3227 19.6163 14.1623C19.605 14.3102 19.5938 14.4574 19.5938 14.6083C19.5938 14.9176 19.6193 15.2252 19.6686 15.5292C18.9299 15.8617 18.0708 15.8902 17.2698 15.5553C16.1571 15.0939 15.4375 14.0163 15.4375 12.811V12.4684H11.875V12.811C11.875 14.0163 11.1554 15.0939 10.0148 15.5666C8.89319 16.0344 7.61722 15.7851 6.76222 14.9289L6.51937 14.686L3.99831 17.2071L4.24116 17.4499C5.09616 18.3049 5.34672 19.5821 4.86757 20.7292C4.40681 21.8425 3.32915 22.5621 2.12384 22.5621H1.78125V26.1246H2.12384C3.32915 26.1246 4.40681 26.8443 4.87944 27.9848C5.34731 29.1053 5.09675 30.3818 4.24175 31.2374L3.99891 31.4803L6.51997 34.0013L6.76281 33.7585C7.61722 32.9041 8.89259 32.6529 10.0421 33.1321C11.1554 33.5928 11.875 34.6705 11.875 35.8758V36.2184H16.0312V32.3091C15.2641 32.5377 14.4691 32.6559 13.6562 32.6559C9.0725 32.6559 5.34375 28.9271 5.34375 24.3434C5.34375 19.7596 9.0725 16.0309 13.6562 16.0309C15.9891 16.0309 18.0975 17.0005 19.6086 18.5531C19.6056 18.5038 19.5938 18.4563 19.5938 18.4059C19.5938 17.0961 20.6589 16.0309 21.9688 16.0309H22.5625H23.3908C24.5326 16.0309 25.5918 15.4638 26.2247 14.5138L26.7188 13.7728L27.2128 14.5138C27.8457 15.4638 28.9055 16.0309 30.0467 16.0309H30.875H31.4688C32.7786 16.0309 33.8438 17.0961 33.8438 18.4059C33.8438 19.7157 32.7786 20.7809 31.4688 20.7809H31.3126C31.0044 21.9725 30.2462 22.9825 29.2279 23.619L29.5735 24.9995L32.0726 25.3563C32.9852 25.4875 33.8728 25.826 34.64 26.3372C36.3719 27.492 37.4062 29.4247 37.4062 31.5064V37.4059H10.6875V35.8758C10.6875 35.152 10.2553 34.5054 9.557 34.2163C8.88309 33.9342 8.11597 34.0839 7.60238 34.598L6.51997 35.6804L2.31978 31.4803L3.40219 30.3978C3.91519 29.8843 4.06541 29.1171 3.77091 28.4123C3.49422 27.7444 2.84763 27.3121 2.12384 27.3121H0.59375V21.3746H2.12384ZM4.75 8.23375L2.85178 9.49963L4.75 10.7655V8.23375ZM20.1875 4.828L22.0857 3.56213L20.1875 2.29625V4.828ZM30.875 8.3905L32.7732 7.12463L30.875 5.85875V8.3905ZM24.1846 26.1531L23.4519 26.2576L24.1543 28.1582L25.6565 27.2569L24.1846 26.1531ZM21.5335 26.5325C21.4801 26.5403 21.4284 26.5551 21.375 26.5646V29.778L23.6241 30.1532L22.2484 26.4304L21.5335 26.5325ZM26.7188 28.0044L24.5729 29.2923L26.7188 35.0986L28.8646 29.2923L26.7188 28.0044ZM27.5714 36.2184H28.7494L30.6933 32.8168L29.2339 31.7219L27.5714 36.2184ZM24.2042 31.7213L22.7448 32.8162L24.6881 36.2184H25.8661L24.2042 31.7213ZM21.1927 32.495L22.8772 31.2321L20.1875 30.7844V26.9309C19.934 27.0443 19.687 27.172 19.4566 27.3252C18.0553 28.2598 17.2188 29.8225 17.2188 31.5064V36.2184H23.3207L21.1927 32.495ZM18.3653 24.9371H14.25V29.0524C16.3946 28.7829 18.0957 27.0818 18.3653 24.9371ZM13.0625 24.9371H8.94722C9.21619 27.0818 10.9179 28.7829 13.0625 29.0524V24.9371ZM13.0625 23.7496V19.6343C10.9179 19.9033 9.21678 21.605 8.94722 23.7496H13.0625ZM14.25 23.7496H18.3653C18.0963 21.605 16.3946 19.9039 14.25 19.6343V23.7496ZM13.6562 17.2184C9.72741 17.2184 6.53125 20.4145 6.53125 24.3434C6.53125 28.2722 9.72741 31.4684 13.6562 31.4684C14.4851 31.4684 15.2903 31.3199 16.0597 31.0438C16.096 30.5611 16.1868 30.0909 16.3299 29.6373C15.5254 30.0458 14.6187 30.2809 13.6562 30.2809C10.3823 30.2809 7.71875 27.6173 7.71875 24.3434C7.71875 21.0694 10.3823 18.4059 13.6562 18.4059C16.9302 18.4059 19.5938 21.0694 19.5938 24.3434C19.5938 24.9229 19.5065 25.4822 19.3509 26.0124C19.7719 25.7915 20.2178 25.6164 20.6785 25.4958C20.7397 25.1159 20.7812 24.7317 20.7812 24.3434C20.7812 20.4145 17.5851 17.2184 13.6562 17.2184ZM21.9688 24.3434C21.9688 24.6563 21.9492 24.9686 21.9147 25.2779L23.8646 24.9995L24.2102 23.619C23.1919 22.9819 22.4342 21.9725 22.1255 20.7809H21.9688C21.6499 20.7809 21.3465 20.7156 21.0686 20.6016C21.6398 21.7279 21.9688 22.9968 21.9688 24.3434ZM20.7812 18.4059C20.7812 19.0608 21.3138 19.5934 21.9688 19.5934V17.2184C21.3138 17.2184 20.7812 17.751 20.7812 18.4059ZM32.6562 18.4059C32.6562 17.751 32.1237 17.2184 31.4688 17.2184V19.5934C32.1237 19.5934 32.6562 19.0608 32.6562 18.4059ZM30.2812 19.5934V17.2184H30.0467C28.7743 17.2184 27.5773 16.6959 26.7188 15.7916C25.8602 16.6959 24.6626 17.2184 23.3908 17.2184H23.1562V19.5934C23.1562 21.5581 24.754 23.1559 26.7188 23.1559C28.6835 23.1559 30.2812 21.5581 30.2812 19.5934ZM26.7188 24.3434C26.2271 24.3434 25.7521 24.268 25.3062 24.129L25.0159 25.2928L26.7188 26.5699L28.4222 25.2922L28.1319 24.1284C27.6854 24.268 27.2104 24.3434 26.7188 24.3434ZM29.2529 26.1531L27.781 27.2569L29.2832 28.1582L29.9856 26.2576L29.2529 26.1531ZM31.1891 26.4298L29.8134 30.1526L32.0625 29.7774V26.564C32.0097 26.5545 31.9574 26.5397 31.904 26.5319L31.1891 26.4298ZM36.2188 31.5064C36.2188 29.8219 35.3822 28.2592 33.9809 27.3252C33.7505 27.172 33.5035 27.0443 33.25 26.9309V30.7844L30.5597 31.2321L32.2442 32.495L30.1168 36.2184H36.2188V31.5064Z" fill="#485858"/>
<path d="M15.4375 7.71841H14.25V8.90591H15.4375V7.71841Z" fill="#485858"/>
</svg>
